<?xml version="1.0" encoding="UTF-8"?>
<svg id="Camada_2" data-name="Camada 2" xmlns="http://www.w3.org/2000/svg" viewBox="0 0 1307.48 308.07">
  <defs>
    <style>
      .cls-1 {
        fill: #848484;
      }

      .cls-2 {
        fill: #282828;
      }

      .cls-3 {
        fill: #ffa800;
      }

      .cls-4 {
        fill: #a9a9a9;
      }
    </style>
  </defs>
  <g id="Camada_1" data-name="Camada 1">
    <g>
      <g>
        <path class="cls-2" d="M648.92,51.74h-58.25c-1.34,0-2.53.87-2.94,2.15l-27.24,85.03-26.85-85.02c-.41-1.29-1.6-2.16-2.95-2.16h-58.47c-1.71,0-3.09,1.38-3.09,3.09v157.28c0,1.71,1.38,3.09,3.09,3.09h36.03c1.71,0,3.09-1.38,3.09-3.09v-97.56l31.51,98.5c.41,1.28,1.6,2.15,2.94,2.15h28.69c1.34,0,2.53-.87,2.94-2.14l32.33-100.45-.18,99.5c0,.82.32,1.61.9,2.19.58.58,1.37.91,2.19.91h36.25c1.71,0,3.09-1.38,3.09-3.09V54.83c0-1.71-1.38-3.09-3.09-3.09Z"/>
        <path class="cls-2" d="M740.83,49.8c-49.27,0-77.53,30.46-77.53,83.57s28.26,84,77.53,84,77.96-30.62,77.96-84-28.41-83.57-77.96-83.57ZM740.83,177.52c-20.85,0-31.43-14.86-31.43-44.16s10.57-43.73,31.43-43.73,32.08,14.71,32.08,43.73-10.79,44.16-32.08,44.16Z"/>
        <path class="cls-2" d="M949.04,51.74h-133.76c-1.71,0-3.09,1.38-3.09,3.09v31.93c0,1.71,1.38,3.09,3.09,3.09h44.81v122.26c0,1.71,1.38,3.09,3.09,3.09h37.97c1.71,0,3.09-1.38,3.09-3.09v-122.26h44.81c1.71,0,3.09-1.38,3.09-3.09v-31.93c0-1.71-1.38-3.09-3.09-3.09Z"/>
        <path class="cls-2" d="M1100.87,98.41c0-28.58-20.89-46.33-54.51-46.33h-83.5c-1.52,0-2.75,1.23-2.75,2.75v157.28c0,1.52,1.23,2.75,2.75,2.75h37.76c1.52,0,2.75-1.23,2.75-2.75v-54.85h41.27c9.01,0,10.62,3.12,10.62,11.93v29.55c0,6.13.74,10.59,2.39,14.46.43,1.01,1.43,1.67,2.53,1.67h35.59c1.52,0,2.75-1.23,2.75-2.75v-47.03c0-14.88-3.07-24.96-17.5-30.18,12.57-7.1,19.86-20.25,19.86-36.49ZM1055.88,105.32c0,10.31-6.86,16.23-18.82,16.23h-33.7v-32.26h34.14c6.87,0,18.38,2.08,18.38,16.03Z"/>
        <rect class="cls-2" x="1114.24" y="51.74" width="43.94" height="163.46" rx="3.09" ry="3.09"/>
        <path class="cls-2" d="M1304.39,176.87h-76.2l75.54-89.63c.47-.56.73-1.26.73-1.99v-30.42c0-1.71-1.38-3.09-3.09-3.09h-126.64c-1.71,0-3.09,1.38-3.09,3.09v31.93c0,1.71,1.38,3.09,3.09,3.09h68.73l-73.92,89.44c-.46.56-.71,1.25-.71,1.97v30.85c0,1.71,1.38,3.09,3.09,3.09h132.47c1.71,0,3.09-1.38,3.09-3.09v-32.15c0-1.71-1.38-3.09-3.09-3.09Z"/>
      </g>
      <g>
        <path class="cls-1" d="M188.02,201.5v106.5c-.99-.11-1.94-.37-2.82-.75-.82-.36-1.56-.88-2.23-1.45l-1.02-.89s0,0-.01-.01L6.66,153.11c-4.51-3.91-6.96-9.7-6.63-15.66,1.55-29.23,10.98-44.73,23.3-52.17l1.21-.7c27.88-15.44,69.37,8.24,69.37,8.24l47.05,27.17h0c.08.05.15.1.23.14h0c46.82,27.22,46.82,81.37,46.82,81.37Z"/>
        <path class="cls-3" d="M141.2,120.13c-.08-.04-.15-.08-.23-.13h0s.23.13.23.13Z"/>
        <path class="cls-3" d="M141.2,120.13c-.08-.04-.15-.08-.23-.13h0s.23.13.23.13Z"/>
        <path class="cls-4" d="M329.18,120v103.13c0,3.42-1.83,6.58-4.8,8.28l-.28.16-27.08,15.64c-1.71.99-3.11.2-3.11-1.76v-116.58c0-1.31-.88-1.87-2.01-1.33-1.13.53-2.18,2.04-2.33,3.41l-7.29,70.63-5.61,54.37c-.17,1.83-1.52,3.84-3.06,4.74l-30.02,17.33c-1.54.89-2.86.42-3.06-1.2l-12.48-106.55-.42-3.56c-.15-1.2-1.2-1.49-2.33-.73-.63.42-1.17,1.09-1.53,1.81-.3.6-.48,1.25-.48,1.83v116.6c0,1.96-1.4,4.36-3.11,5.35l-25.8,14.9-.95.55c-1.31.66-2.78,1.04-4.35,1.04-.37,0-.72-.02-1.07-.06v-106.5s0-54.15-46.82-81.36h0s-.23-.14-.23-.14h0l-47.05-27.17s-41.49-23.69-69.37-8.24L146.23,14.37s.02-.01.06-.04l8.63-4.97c12.19-6.03,35.96-14.3,63.27-5.55,8.58,3.09,14.85,6.41,16.47,7.3.05.03.1.05.14.08.08.05.17.09.25.14,0,0,.02,0,.03.01l47.05,27.17c16.34,9.43,27.01,22.15,33.96,34.72,13.09,23.63,13.09,46.78,13.09,46.78Z"/>
      </g>
    </g>
  </g>
</svg>