<?xml version="1.0" encoding="UTF-8"?>
<svg id="Camada_2" data-name="Camada 2" xmlns="http://www.w3.org/2000/svg" viewBox="0 0 209.58 196.29">
  <defs>
    <style>
      .cls-1 {
        fill: #f2f2f2;
      }
    </style>
  </defs>
  <g id="Camada_1" data-name="Camada 1">
    <g>
      <path class="cls-1" d="M110,130.37v59.13c0,1.01-1.19,1.55-1.95.89L3.19,99.05c-.99-.86-1.69-1.78-2.17-2.67-.75-1.69-1.11-3.55-1.01-5.44.12-2.23.31-4.33.57-6.3.01-.09.02-.18.04-.27,1.34-9.1,4.18-14.64,6.57-17.82,3.12-4.17,6.12-5.29,6.12-5.29l.22-.09c4.3-1.96,8.83-2.7,13.23-2.7,13.99,0,26.76,7.51,26.92,7.61l28.76,16.6c11.36,6.56,19.44,16.54,24.03,29.67,3.46,9.9,3.52,17.97,3.52,18.04Z"/>
      <path class="cls-1" d="M209.58,76.59v65.85c0,2.18-1.17,4.19-3.06,5.26l-.18.1-17.29,9.98c-1.09.63-1.98.13-1.98-1.12v-74.41c0-.84-.56-1.19-1.28-.85-.72.34-1.39,1.3-1.49,2.18l-4.65,45.08-3.58,34.7c-.11,1.17-.97,2.45-1.95,3.02l-19.16,11.06c-.98.57-1.83.27-1.95-.77l-7.97-68-.27-2.27c-.09-.77-.77-.95-1.49-.46-.4.27-.75.69-.98,1.16-.19.39-.3.8-.3,1.17v74.42c0,1.25-.89,2.78-1.98,3.41l-17.09,9.87h0c-1.56.9-3.51-.23-3.51-2.03v-64.99c0-.37-.05-9.21-3.89-20.31-.49-1.43-1.07-2.93-1.73-4.48-.03-.07-.06-.14-.09-.21-4.14-9.61-11.73-21.16-25.55-29.14l-30.01-17.33c-.81-.49-10.99-6.44-23.7-8.2-2.93-.41-3.67-4.31-1.11-5.79L92.82,9.17l.04-.02,5.51-3.17c7.78-3.85,22.95-9.13,40.38-3.54,5.48,1.97,9.48,4.09,10.51,4.66.03.02.06.03.09.05.05.03.11.06.16.09,0,0,.01,0,.02,0l30.03,17.34c10.43,6.02,17.24,14.14,21.68,22.16,8.35,15.09,8.35,29.86,8.35,29.86Z"/>
    </g>
  </g>
</svg>