<?xml version="1.0" encoding="UTF-8"?>
<svg id="Camada_3" data-name="Camada 3" xmlns="http://www.w3.org/2000/svg" viewBox="0 0 731.82 196.2">
  <defs>
    <style>
      .cls-1 {
        fill: #f2f2f2;
      }

      .cls-2 {
        fill: #ffa800;
      }

      .cls-3 {
        fill: #ffa300;
      }

      .cls-4 {
        fill: #ffbc00;
      }
    </style>
  </defs>
  <g id="Camada_1" data-name="Camada 1">
    <g>
      <path class="cls-3" d="M119.75,128.33v67.83c-.63-.07-1.24-.23-1.8-.48-.52-.23-.99-.56-1.42-.93l-.65-.57s0,0,0,0L4.24,97.51C1.37,95.02-.19,91.34.02,87.54c.99-18.61,6.99-28.49,14.84-33.23l.77-.44c17.76-9.84,44.18,5.25,44.18,5.25l29.97,17.3h0s.1.06.15.09h0c29.82,17.34,29.82,51.82,29.82,51.82Z"/>
      <path class="cls-2" d="M89.93,76.51s-.1-.05-.15-.08h0s.15.08.15.08Z"/>
      <path class="cls-2" d="M89.93,76.51s-.1-.05-.15-.08h0s.15.08.15.08Z"/>
      <path class="cls-4" d="M209.65,76.42v65.68c0,2.18-1.17,4.19-3.06,5.27l-.18.1-17.25,9.96c-1.09.63-1.98.13-1.98-1.12v-74.25c0-.84-.56-1.19-1.28-.84-.72.34-1.39,1.3-1.48,2.17l-4.64,44.98-3.57,34.63c-.11,1.17-.97,2.45-1.95,3.02l-19.12,11.04c-.98.57-1.82.27-1.95-.77l-7.95-67.86-.27-2.27c-.09-.77-.77-.95-1.48-.46-.4.27-.75.69-.98,1.16-.19.39-.3.8-.3,1.17v74.26c0,1.25-.89,2.78-1.98,3.41l-16.43,9.49-.6.35c-.83.42-1.77.66-2.77.66-.23,0-.46-.01-.68-.04v-67.83s0-34.49-29.82-51.82h0s-.15-.09-.15-.09h0l-29.97-17.3s-26.43-15.09-44.18-5.25L93.13,9.15s.01,0,.04-.02l5.5-3.17c7.76-3.84,22.9-9.11,40.29-3.54,5.47,1.97,9.46,4.08,10.49,4.65.03.02.06.03.09.05.05.03.11.06.16.09,0,0,.01,0,.02,0l29.97,17.3c10.41,6.01,17.2,14.11,21.63,22.11,8.34,15.05,8.34,29.79,8.34,29.79Z"/>
    </g>
    <g>
      <g>
        <path class="cls-1" d="M391.65,23.44h-30.09c-.69,0-1.31.45-1.52,1.11l-14.07,43.92-13.87-43.91c-.21-.66-.83-1.12-1.52-1.12h-30.2c-.88,0-1.6.72-1.6,1.6v81.24c0,.88.71,1.6,1.6,1.6h18.61c.88,0,1.6-.72,1.6-1.6v-50.39l16.27,50.88c.21.66.83,1.11,1.52,1.11h14.82c.69,0,1.31-.45,1.52-1.11l16.7-51.89-.09,51.39c0,.42.17.83.47,1.13.3.3.71.47,1.13.47h18.72c.88,0,1.6-.72,1.6-1.6V25.03c0-.88-.71-1.6-1.6-1.6Z"/>
        <path class="cls-1" d="M439.13,22.43c-25.45,0-40.04,15.73-40.04,43.16s14.6,43.39,40.04,43.39,40.27-15.81,40.27-43.39-14.68-43.16-40.27-43.16ZM439.13,88.41c-10.77,0-16.23-7.67-16.23-22.81s5.46-22.59,16.23-22.59,16.57,7.6,16.57,22.59-5.57,22.81-16.57,22.81Z"/>
        <path class="cls-1" d="M546.67,23.44h-69.09c-.88,0-1.6.72-1.6,1.6v16.49c0,.88.71,1.6,1.6,1.6h23.14v63.15c0,.88.71,1.6,1.6,1.6h19.61c.88,0,1.6-.72,1.6-1.6v-63.15h23.14c.88,0,1.6-.72,1.6-1.6v-16.49c0-.88-.71-1.6-1.6-1.6Z"/>
        <path class="cls-1" d="M625.09,47.55c0-14.76-10.79-23.93-28.16-23.93h-43.13c-.78,0-1.42.64-1.42,1.42v81.24c0,.78.64,1.42,1.42,1.42h19.5c.78,0,1.42-.64,1.42-1.42v-28.33h21.32c4.65,0,5.48,1.61,5.48,6.16v15.26c0,3.17.38,5.47,1.23,7.47.22.52.74.86,1.31.86h18.38c.78,0,1.42-.64,1.42-1.42v-24.29c0-7.69-1.59-12.89-9.04-15.59,6.49-3.67,10.26-10.46,10.26-18.85ZM601.86,51.11c0,5.33-3.54,8.38-9.72,8.38h-17.41v-16.66h17.63c3.55,0,9.5,1.08,9.5,8.28Z"/>
        <rect class="cls-1" x="632" y="23.44" width="22.7" height="84.43" rx="1.6" ry="1.6"/>
        <path class="cls-1" d="M730.22,88.07h-39.36l39.02-46.3c.24-.29.38-.65.38-1.03v-15.71c0-.88-.71-1.6-1.6-1.6h-65.42c-.88,0-1.6.72-1.6,1.6v16.49c0,.88.71,1.6,1.6,1.6h35.5l-38.18,46.2c-.24.29-.37.65-.37,1.02v15.94c0,.88.71,1.6,1.6,1.6h68.42c.88,0,1.6-.72,1.6-1.6v-16.6c0-.88-.71-1.6-1.6-1.6Z"/>
      </g>
      <g>
        <path class="cls-1" d="M298.78,173.14v-45.77h18.96c4.31,0,8.04.93,11.18,2.79,3.14,1.86,5.56,4.51,7.25,7.94,1.69,3.43,2.54,7.49,2.54,12.18s-.82,8.55-2.45,11.96c-1.63,3.41-4.02,6.08-7.16,8-3.14,1.93-6.93,2.89-11.36,2.89h-18.96ZM317.43,133.96h-11.18v32.59h11.18c4.23,0,7.54-1.44,9.92-4.33,2.39-2.89,3.58-6.89,3.58-11.99s-1.17-9.04-3.51-11.93c-2.34-2.89-5.67-4.33-9.99-4.33Z"/>
        <path class="cls-1" d="M346.44,173.14v-45.77h32.78v6.4h-25.3v12.87h22.67v6.22h-22.67v13.81h27.19v6.47h-34.66Z"/>
        <path class="cls-1" d="M387.57,173.14v-45.77h11.99l12.05,34.85,12.18-34.85h11.74v45.77h-7.35l.31-39.31-13.88,39.31h-6.34l-13.56-39.24v39.24h-7.16Z"/>
        <path class="cls-1" d="M464.48,173.77c-4.39,0-8.17-.93-11.33-2.79-3.16-1.86-5.6-4.54-7.31-8.04-1.72-3.49-2.58-7.71-2.58-12.65s.84-9.09,2.51-12.59c1.67-3.49,4.09-6.19,7.25-8.07,3.16-1.88,6.98-2.83,11.46-2.83s8.25.92,11.43,2.76c3.18,1.84,5.63,4.51,7.35,8.01,1.72,3.5,2.58,7.71,2.58,12.65s-.84,9.1-2.51,12.62c-1.68,3.52-4.1,6.22-7.29,8.1-3.18,1.88-7.03,2.83-11.55,2.83ZM464.48,166.99c4.23,0,7.52-1.39,9.89-4.18,2.36-2.78,3.55-6.96,3.55-12.53,0-5.27-1.13-9.39-3.39-12.34s-5.61-4.43-10.05-4.43c-4.14,0-7.41,1.39-9.79,4.18-2.39,2.78-3.58,6.96-3.58,12.53,0,5.23,1.13,9.33,3.39,12.31,2.26,2.97,5.59,4.46,9.98,4.46Z"/>
        <path class="cls-1" d="M493.49,173.14v-45.77h7.47v39.31h24.74v6.47h-32.21Z"/>
        <path class="cls-1" d="M538.19,173.14h-7.47v-45.77h7.47v45.77Z"/>
        <path class="cls-1" d="M548.49,173.14v-45.77h18.96c4.31,0,8.04.93,11.18,2.79,3.14,1.86,5.56,4.51,7.25,7.94,1.69,3.43,2.54,7.49,2.54,12.18s-.82,8.55-2.45,11.96c-1.63,3.41-4.02,6.08-7.16,8-3.14,1.93-6.93,2.89-11.36,2.89h-18.96ZM567.14,133.96h-11.18v32.59h11.18c4.23,0,7.54-1.44,9.92-4.33,2.39-2.89,3.58-6.89,3.58-11.99s-1.17-9.04-3.51-11.93c-2.34-2.89-5.67-4.33-9.99-4.33Z"/>
        <path class="cls-1" d="M615.61,173.77c-4.39,0-8.17-.93-11.33-2.79-3.16-1.86-5.6-4.54-7.31-8.04-1.72-3.49-2.58-7.71-2.58-12.65s.84-9.09,2.51-12.59c1.67-3.49,4.09-6.19,7.25-8.07,3.16-1.88,6.98-2.83,11.46-2.83s8.25.92,11.43,2.76c3.18,1.84,5.63,4.51,7.35,8.01,1.72,3.5,2.58,7.71,2.58,12.65s-.84,9.1-2.51,12.62c-1.68,3.52-4.1,6.22-7.29,8.1-3.18,1.88-7.03,2.83-11.55,2.83ZM615.61,166.99c4.23,0,7.52-1.39,9.89-4.18,2.36-2.78,3.55-6.96,3.55-12.53,0-5.27-1.13-9.39-3.39-12.34-2.26-2.95-5.61-4.43-10.05-4.43-4.14,0-7.41,1.39-9.79,4.18-2.39,2.78-3.58,6.96-3.58,12.53,0,5.23,1.13,9.33,3.39,12.31,2.26,2.97,5.59,4.46,9.98,4.46Z"/>
        <path class="cls-1" d="M644.62,173.14v-45.77h22.29c4.64,0,8.26,1.12,10.83,3.36,2.57,2.24,3.86,5.22,3.86,8.95,0,2.68-.68,4.99-2.04,6.94-1.36,1.95-3.25,3.3-5.68,4.05,2.05.42,3.56,1.02,4.52,1.79.96.77,1.6,1.72,1.92,2.83.32,1.11.47,2.42.47,3.92v10.8c0,.5.06.99.19,1.48.12.48.42.81.88.97v.69h-7.66c-.29-.42-.51-.92-.66-1.51s-.22-1.42-.22-2.51v-8.79c0-2.13-.35-3.73-1.04-4.77-.69-1.05-2.15-1.57-4.36-1.57h-15.82v19.15h-7.47ZM652.09,147.71h13.75c2.55,0,4.51-.61,5.87-1.82,1.36-1.21,2.04-2.95,2.04-5.21s-.69-3.97-2.07-5.12c-1.38-1.15-3.31-1.73-5.78-1.73h-13.81v13.88Z"/>
        <path class="cls-1" d="M686.38,173.14l18.27-45.77h8.66l18.27,45.77h-7.91l-4.33-11.11h-20.91l-4.33,11.11h-7.72ZM706.66,141.06l-5.71,14.63h15.95l-5.65-14.63c-.76-1.88-1.53-4.02-2.32-6.4-.75,2.34-1.51,4.48-2.26,6.4Z"/>
      </g>
    </g>
  </g>
</svg>