<?xml version="1.0" encoding="UTF-8"?>
<svg id="Camada_3" data-name="Camada 3" xmlns="http://www.w3.org/2000/svg" viewBox="0 0 832.57 196.29">
  <g id="Camada_1" data-name="Camada 1">
    <g>
      <g>
        <path d="M413.14,32.98h-37.1c-.86,0-1.61.55-1.88,1.37l-17.35,54.15-17.1-54.15c-.26-.82-1.02-1.38-1.88-1.38h-37.24c-1.09,0-1.97.88-1.97,1.97v100.17c0,1.09.88,1.97,1.97,1.97h22.95c1.09,0,1.97-.88,1.97-1.97v-62.13l20.07,62.73c.26.82,1.02,1.37,1.88,1.37h18.28c.85,0,1.61-.55,1.87-1.37l20.59-63.98-.11,63.37c0,.52.21,1.02.58,1.39.37.37.87.58,1.39.58h23.08c1.09,0,1.97-.88,1.97-1.97V34.95c0-1.09-.88-1.97-1.97-1.97Z"/>
        <path d="M471.68,31.74c-31.38,0-49.38,19.4-49.38,53.22s18,53.5,49.38,53.5,49.65-19.5,49.65-53.5-18.1-53.22-49.65-53.22ZM471.68,113.09c-13.28,0-20.02-9.46-20.02-28.12s6.73-27.85,20.02-27.85,20.43,9.37,20.43,27.85-6.87,28.12-20.43,28.12Z"/>
        <path d="M604.28,32.98h-85.19c-1.09,0-1.97.88-1.97,1.97v20.34c0,1.09.88,1.97,1.97,1.97h28.54v77.87c0,1.09.88,1.97,1.97,1.97h24.18c1.09,0,1.97-.88,1.97-1.97V57.25h28.54c1.09,0,1.97-.88,1.97-1.97v-20.34c0-1.09-.88-1.97-1.97-1.97Z"/>
        <path d="M700.98,62.71c0-18.2-13.3-29.51-34.72-29.51h-53.18c-.97,0-1.75.78-1.75,1.75v100.17c0,.97.78,1.75,1.75,1.75h24.05c.97,0,1.75-.78,1.75-1.75v-34.94h26.28c5.74,0,6.76,1.99,6.76,7.6v18.82c0,3.91.47,6.75,1.52,9.21.28.65.91,1.06,1.61,1.06h22.67c.97,0,1.75-.78,1.75-1.75v-29.95c0-9.48-1.96-15.9-11.14-19.22,8.01-4.53,12.65-12.9,12.65-23.24ZM672.32,67.11c0,6.57-4.37,10.34-11.99,10.34h-21.46v-20.54h21.74c4.37,0,11.71,1.33,11.71,10.21Z"/>
        <rect x="709.5" y="32.98" width="27.98" height="104.11" rx="1.97" ry="1.97"/>
        <path d="M830.6,112.68h-48.53l48.11-57.08c.3-.36.46-.8.46-1.27v-19.37c0-1.09-.88-1.97-1.97-1.97h-80.66c-1.09,0-1.97.88-1.97,1.97v20.34c0,1.09.88,1.97,1.97,1.97h43.77l-47.08,56.96c-.29.35-.45.8-.45,1.25v19.65c0,1.09.88,1.97,1.97,1.97h84.37c1.09,0,1.97-.88,1.97-1.97v-20.47c0-1.09-.88-1.97-1.97-1.97Z"/>
      </g>
      <g>
        <path d="M110,130.37v59.13c0,1.01-1.19,1.55-1.95.89L3.19,99.05c-.99-.86-1.69-1.78-2.17-2.67-.75-1.69-1.11-3.55-1.01-5.44.12-2.23.31-4.33.57-6.3.01-.09.02-.18.04-.27,1.34-9.1,4.18-14.64,6.57-17.82,3.12-4.17,6.12-5.29,6.12-5.29l.22-.09c4.3-1.96,8.83-2.7,13.23-2.7,13.99,0,26.76,7.51,26.92,7.61l28.76,16.6c11.36,6.56,19.44,16.54,24.03,29.67,3.46,9.9,3.52,17.97,3.52,18.04Z"/>
        <path d="M209.58,76.59v65.85c0,2.18-1.17,4.19-3.06,5.26l-.18.1-17.29,9.98c-1.09.63-1.98.13-1.98-1.12v-74.41c0-.84-.56-1.19-1.28-.85-.72.34-1.39,1.3-1.49,2.18l-4.65,45.08-3.58,34.7c-.11,1.17-.97,2.45-1.95,3.02l-19.16,11.06c-.98.57-1.83.27-1.95-.77l-7.97-68-.27-2.27c-.09-.77-.77-.95-1.49-.46-.4.27-.75.69-.98,1.16-.19.39-.3.8-.3,1.17v74.42c0,1.25-.89,2.78-1.98,3.41l-17.09,9.87h0c-1.56.9-3.51-.23-3.51-2.03v-64.99c0-.37-.05-9.21-3.89-20.31-.49-1.43-1.07-2.93-1.73-4.48-.03-.07-.06-.14-.09-.21-4.14-9.61-11.73-21.16-25.55-29.14l-30.01-17.33c-.81-.49-10.99-6.44-23.7-8.2-2.93-.41-3.67-4.31-1.11-5.79L92.82,9.17l.04-.02,5.51-3.17c7.78-3.85,22.95-9.13,40.38-3.54,5.48,1.97,9.48,4.09,10.51,4.66.03.02.06.03.09.05.05.03.11.06.16.09,0,0,.01,0,.02,0l30.03,17.34c10.43,6.02,17.24,14.14,21.68,22.16,8.35,15.09,8.35,29.86,8.35,29.86Z"/>
      </g>
    </g>
  </g>
</svg>