<?xml version="1.0" encoding="UTF-8"?>
<svg id="Camada_2" data-name="Camada 2" xmlns="http://www.w3.org/2000/svg" viewBox="0 0 731.82 196.2">
  <defs>
    <style>
      .cls-1 {
        fill: #848484;
      }

      .cls-2 {
        fill: #ffa800;
      }

      .cls-3 {
        fill: #a9a9a9;
      }
    </style>
  </defs>
  <g id="Camada_1" data-name="Camada 1">
    <g>
      <path class="cls-1" d="M119.75,128.33v67.83c-.63-.07-1.24-.23-1.8-.48-.52-.23-.99-.56-1.42-.93l-.65-.57s0,0,0,0L4.24,97.51C1.37,95.02-.19,91.34.02,87.54c.99-18.61,6.99-28.49,14.84-33.23l.77-.44c17.76-9.84,44.18,5.25,44.18,5.25l29.97,17.3h0s.1.06.15.09h0c29.82,17.34,29.82,51.82,29.82,51.82Z"/>
      <path class="cls-2" d="M89.93,76.51s-.1-.05-.15-.08h0s.15.08.15.08Z"/>
      <path class="cls-2" d="M89.93,76.51s-.1-.05-.15-.08h0s.15.08.15.08Z"/>
      <path class="cls-3" d="M209.65,76.42v65.68c0,2.18-1.17,4.19-3.06,5.27l-.18.1-17.25,9.96c-1.09.63-1.98.13-1.98-1.12v-74.25c0-.84-.56-1.19-1.28-.84-.72.34-1.39,1.3-1.48,2.17l-4.64,44.98-3.57,34.63c-.11,1.17-.97,2.45-1.95,3.02l-19.12,11.04c-.98.57-1.82.27-1.95-.77l-7.95-67.86-.27-2.27c-.09-.77-.77-.95-1.48-.46-.4.27-.75.69-.98,1.16-.19.39-.3.8-.3,1.17v74.26c0,1.25-.89,2.78-1.98,3.41l-16.43,9.49-.6.35c-.83.42-1.77.66-2.77.66-.23,0-.46-.01-.68-.04v-67.83s0-34.49-29.82-51.82h0s-.15-.09-.15-.09h0l-29.97-17.3s-26.43-15.09-44.18-5.25L93.13,9.15s.01,0,.04-.02l5.5-3.17c7.76-3.84,22.9-9.11,40.29-3.54,5.47,1.97,9.46,4.08,10.49,4.65.03.02.06.03.09.05.05.03.11.06.16.09,0,0,.01,0,.02,0l29.97,17.3c10.41,6.01,17.2,14.11,21.63,22.11,8.34,15.05,8.34,29.79,8.34,29.79Z"/>
    </g>
    <g>
      <g>
        <path class="cls-3" d="M391.65,34.46h-30.09c-.69,0-1.31.45-1.52,1.11l-14.07,43.92-13.87-43.91c-.21-.66-.83-1.12-1.52-1.12h-30.2c-.88,0-1.6.72-1.6,1.6v81.24c0,.88.71,1.6,1.6,1.6h18.61c.88,0,1.6-.72,1.6-1.6v-50.39l16.27,50.88c.21.66.83,1.11,1.52,1.11h14.82c.69,0,1.31-.45,1.52-1.11l16.7-51.89-.09,51.39c0,.42.17.83.47,1.13.3.3.71.47,1.13.47h18.72c.88,0,1.6-.72,1.6-1.6V36.05c0-.88-.71-1.6-1.6-1.6Z"/>
        <path class="cls-3" d="M439.13,33.46c-25.45,0-40.04,15.73-40.04,43.16s14.6,43.39,40.04,43.39,40.27-15.81,40.27-43.39-14.68-43.16-40.27-43.16ZM439.13,99.43c-10.77,0-16.23-7.67-16.23-22.81s5.46-22.59,16.23-22.59,16.57,7.6,16.57,22.59-5.57,22.81-16.57,22.81Z"/>
        <path class="cls-3" d="M546.67,34.46h-69.09c-.88,0-1.6.72-1.6,1.6v16.49c0,.88.71,1.6,1.6,1.6h23.14v63.15c0,.88.71,1.6,1.6,1.6h19.61c.88,0,1.6-.72,1.6-1.6v-63.15h23.14c.88,0,1.6-.72,1.6-1.6v-16.49c0-.88-.71-1.6-1.6-1.6Z"/>
        <path class="cls-3" d="M625.09,58.57c0-14.76-10.79-23.93-28.16-23.93h-43.13c-.78,0-1.42.64-1.42,1.42v81.24c0,.78.64,1.42,1.42,1.42h19.5c.78,0,1.42-.64,1.42-1.42v-28.33h21.32c4.65,0,5.48,1.61,5.48,6.16v15.26c0,3.17.38,5.47,1.23,7.47.22.52.74.86,1.31.86h18.38c.78,0,1.42-.64,1.42-1.42v-24.29c0-7.69-1.59-12.89-9.04-15.59,6.49-3.67,10.26-10.46,10.26-18.85ZM601.86,62.14c0,5.33-3.54,8.38-9.72,8.38h-17.41v-16.66h17.63c3.55,0,9.5,1.08,9.5,8.28Z"/>
        <rect class="cls-3" x="632" y="34.46" width="22.7" height="84.43" rx="1.6" ry="1.6"/>
        <path class="cls-3" d="M730.22,99.09h-39.36l39.02-46.3c.24-.29.38-.65.38-1.03v-15.71c0-.88-.71-1.6-1.6-1.6h-65.42c-.88,0-1.6.72-1.6,1.6v16.49c0,.88.71,1.6,1.6,1.6h35.5l-38.18,46.2c-.24.29-.37.65-.37,1.02v15.94c0,.88.71,1.6,1.6,1.6h68.42c.88,0,1.6-.72,1.6-1.6v-16.6c0-.88-.71-1.6-1.6-1.6Z"/>
      </g>
      <g>
        <path class="cls-3" d="M500.64,162.41v-24.42h10.12c2.3,0,4.29.5,5.96,1.49,1.68.99,2.97,2.41,3.87,4.24.9,1.83,1.36,4,1.36,6.5s-.44,4.56-1.31,6.38c-.87,1.82-2.14,3.24-3.82,4.27-1.68,1.03-3.7,1.54-6.06,1.54h-10.12ZM510.59,141.5h-5.96v17.39h5.96c2.26,0,4.02-.77,5.29-2.31,1.27-1.54,1.91-3.67,1.91-6.4s-.63-4.82-1.88-6.37c-1.25-1.54-3.03-2.31-5.33-2.31Z"/>
        <path class="cls-3" d="M526.07,162.41v-24.42h17.49v3.42h-13.5v6.87h12.09v3.32h-12.09v7.37h14.51v3.45h-18.49Z"/>
        <path class="cls-3" d="M548.01,162.41v-24.42h6.4l6.43,18.59,6.5-18.59h6.27v24.42h-3.92l.17-20.97-7.4,20.97h-3.38l-7.24-20.94v20.94h-3.82Z"/>
        <path class="cls-3" d="M589.05,162.75c-2.34,0-4.36-.5-6.05-1.49-1.69-.99-2.99-2.42-3.9-4.29-.92-1.86-1.37-4.12-1.37-6.75s.45-4.85,1.34-6.72c.89-1.86,2.18-3.3,3.87-4.31,1.69-1.01,3.72-1.51,6.11-1.51s4.4.49,6.1,1.47c1.7.98,3,2.41,3.92,4.27.92,1.87,1.37,4.12,1.37,6.75s-.45,4.86-1.34,6.73c-.89,1.88-2.19,3.32-3.89,4.32-1.7,1-3.75,1.51-6.16,1.51ZM589.05,159.13c2.26,0,4.01-.74,5.28-2.23,1.26-1.49,1.89-3.71,1.89-6.68,0-2.81-.6-5.01-1.81-6.58s-2.99-2.36-5.36-2.36c-2.21,0-3.95.74-5.23,2.23-1.27,1.49-1.91,3.71-1.91,6.68,0,2.79.6,4.98,1.81,6.57,1.21,1.59,2.98,2.38,5.33,2.38Z"/>
        <path class="cls-3" d="M604.53,162.41v-24.42h3.99v20.97h13.2v3.45h-17.19Z"/>
        <path class="cls-3" d="M628.39,162.41h-3.99v-24.42h3.99v24.42Z"/>
        <path class="cls-3" d="M633.88,162.41v-24.42h10.12c2.3,0,4.29.5,5.96,1.49,1.68.99,2.97,2.41,3.87,4.24.9,1.83,1.36,4,1.36,6.5s-.44,4.56-1.31,6.38c-.87,1.82-2.14,3.24-3.82,4.27-1.68,1.03-3.7,1.54-6.06,1.54h-10.12ZM643.83,141.5h-5.96v17.39h5.96c2.26,0,4.02-.77,5.29-2.31,1.27-1.54,1.91-3.67,1.91-6.4s-.63-4.82-1.88-6.37c-1.25-1.54-3.03-2.31-5.33-2.31Z"/>
        <path class="cls-3" d="M669.7,162.75c-2.34,0-4.36-.5-6.05-1.49-1.69-.99-2.99-2.42-3.9-4.29-.92-1.86-1.37-4.12-1.37-6.75s.45-4.85,1.34-6.72c.89-1.86,2.18-3.3,3.87-4.31,1.69-1.01,3.72-1.51,6.11-1.51s4.4.49,6.1,1.47c1.7.98,3,2.41,3.92,4.27.92,1.87,1.37,4.12,1.37,6.75s-.45,4.86-1.34,6.73c-.89,1.88-2.19,3.32-3.89,4.32-1.7,1-3.75,1.51-6.16,1.51ZM669.7,159.13c2.26,0,4.01-.74,5.28-2.23,1.26-1.49,1.89-3.71,1.89-6.68,0-2.81-.6-5.01-1.81-6.58-1.21-1.57-2.99-2.36-5.36-2.36-2.21,0-3.95.74-5.23,2.23-1.27,1.49-1.91,3.71-1.91,6.68,0,2.79.6,4.98,1.81,6.57,1.21,1.59,2.98,2.38,5.33,2.38Z"/>
        <path class="cls-3" d="M685.18,162.41v-24.42h11.89c2.48,0,4.41.6,5.78,1.79,1.37,1.2,2.06,2.79,2.06,4.77,0,1.43-.36,2.66-1.09,3.7-.73,1.04-1.74,1.76-3.03,2.16,1.09.22,1.9.54,2.41.95.51.41.85.92,1.02,1.51.17.59.25,1.29.25,2.09v5.76c0,.27.03.53.1.79.07.26.22.43.47.52v.37h-4.09c-.16-.22-.27-.49-.35-.8s-.12-.76-.12-1.34v-4.69c0-1.14-.18-1.99-.55-2.55-.37-.56-1.15-.84-2.33-.84h-8.44v10.22h-3.99ZM689.17,148.84h7.34c1.36,0,2.41-.32,3.13-.97.73-.65,1.09-1.57,1.09-2.78s-.37-2.12-1.11-2.73c-.74-.61-1.77-.92-3.08-.92h-7.37v7.4Z"/>
        <path class="cls-3" d="M707.46,162.41l9.75-24.42h4.62l9.75,24.42h-4.22l-2.31-5.93h-11.16l-2.31,5.93h-4.12ZM718.28,145.29l-3.05,7.81h8.51l-3.02-7.81c-.4-1.01-.82-2.14-1.24-3.42-.4,1.25-.8,2.39-1.21,3.42Z"/>
      </g>
    </g>
  </g>
</svg>