<?xml version="1.0" encoding="UTF-8"?>
<svg id="Camada_3" data-name="Camada 3" xmlns="http://www.w3.org/2000/svg" viewBox="0 0 511.56 478.75">
  <defs>
    <style>
      .cls-1 {
        fill: #ffa300;
      }

      .cls-2 {
        fill: #ffbc00;
      }
    </style>
  </defs>
  <g id="Camada_1" data-name="Camada 1">
    <g>
      <path class="cls-1" d="M292.19,313.14v165.51c-1.54-.17-3.02-.57-4.38-1.17-1.27-.56-2.42-1.36-3.47-2.26l-1.59-1.38s-.01-.01-.02-.02L10.35,237.94C3.34,231.86-.46,222.87.04,213.61c2.41-45.42,17.06-69.51,36.21-81.08l1.88-1.08c43.33-24,107.81,12.81,107.81,12.81l73.12,42.22.37.22c72.76,42.29,72.76,126.44,72.76,126.44Z"/>
      <path class="cls-2" d="M511.56,186.48v160.27c0,5.32-2.85,10.23-7.46,12.87l-.44.25-42.09,24.3c-2.66,1.54-4.83.31-4.83-2.73v-181.17c0-2.04-1.37-2.9-3.12-2.06-1.75.83-3.39,3.17-3.62,5.3l-11.33,109.76-8.72,84.5c-.26,2.85-2.36,5.97-4.75,7.36l-46.65,26.93c-2.39,1.38-4.45.66-4.75-1.87l-19.4-165.58-.65-5.53c-.23-1.87-1.87-2.31-3.62-1.13-.98.66-1.82,1.69-2.38,2.82-.47.94-.74,1.94-.74,2.85v181.21c0,3.05-2.17,6.78-4.83,8.31l-40.09,23.15-1.47.85c-2.03,1.03-4.32,1.61-6.76,1.61-.57,0-1.12-.03-1.67-.1v-165.51s0-84.15-72.76-126.44h0s-.36-.22-.36-.22h-.01l-73.12-42.22s-64.48-36.81-107.81-12.81L227.25,22.33s.03-.02.09-.06l13.41-7.73c18.94-9.37,55.88-22.23,98.32-8.63,13.34,4.8,23.08,9.96,25.6,11.34.07.04.15.08.22.12.13.07.26.14.39.22,0,0,.03.01.04.02l73.12,42.22c25.39,14.66,41.97,34.42,52.78,53.95,20.34,36.73,20.34,72.7,20.34,72.7Z"/>
    </g>
  </g>
</svg>