<?xml version="1.0" encoding="UTF-8"?>
<svg id="Camada_3" data-name="Camada 3" xmlns="http://www.w3.org/2000/svg" viewBox="0 0 731.82 196.2">
  <defs>
    <style>
      .cls-1 {
        fill: #848484;
      }

      .cls-2 {
        fill: #ffa800;
      }

      .cls-3 {
        fill: #a9a9a9;
      }
    </style>
  </defs>
  <g id="Camada_1" data-name="Camada 1">
    <g>
      <path class="cls-1" d="M119.75,128.33v67.83c-.63-.07-1.24-.23-1.8-.48-.52-.23-.99-.56-1.42-.93l-.65-.57s0,0,0,0L4.24,97.51C1.37,95.02-.19,91.34.02,87.54c.99-18.61,6.99-28.49,14.84-33.23l.77-.44c17.76-9.84,44.18,5.25,44.18,5.25l29.97,17.3h0s.1.06.15.09h0c29.82,17.34,29.82,51.82,29.82,51.82Z"/>
      <path class="cls-2" d="M89.93,76.51s-.1-.05-.15-.08h0s.15.08.15.08Z"/>
      <path class="cls-2" d="M89.93,76.51s-.1-.05-.15-.08h0s.15.08.15.08Z"/>
      <path class="cls-3" d="M209.65,76.42v65.68c0,2.18-1.17,4.19-3.06,5.27l-.18.1-17.25,9.96c-1.09.63-1.98.13-1.98-1.12v-74.25c0-.84-.56-1.19-1.28-.84-.72.34-1.39,1.3-1.48,2.17l-4.64,44.98-3.57,34.63c-.11,1.17-.97,2.45-1.95,3.02l-19.12,11.04c-.98.57-1.82.27-1.95-.77l-7.95-67.86-.27-2.27c-.09-.77-.77-.95-1.48-.46-.4.27-.75.69-.98,1.16-.19.39-.3.8-.3,1.17v74.26c0,1.25-.89,2.78-1.98,3.41l-16.43,9.49-.6.35c-.83.42-1.77.66-2.77.66-.23,0-.46-.01-.68-.04v-67.83s0-34.49-29.82-51.82h0s-.15-.09-.15-.09h0l-29.97-17.3s-26.43-15.09-44.18-5.25L93.13,9.15s.01,0,.04-.02l5.5-3.17c7.76-3.84,22.9-9.11,40.29-3.54,5.47,1.97,9.46,4.08,10.49,4.65.03.02.06.03.09.05.05.03.11.06.16.09,0,0,.01,0,.02,0l29.97,17.3c10.41,6.01,17.2,14.11,21.63,22.11,8.34,15.05,8.34,29.79,8.34,29.79Z"/>
    </g>
    <g>
      <g>
        <path d="M391.65,23.47h-30.09c-.69,0-1.31.45-1.52,1.11l-14.07,43.92-13.87-43.91c-.21-.66-.83-1.12-1.52-1.12h-30.2c-.88,0-1.6.72-1.6,1.6v81.24c0,.88.71,1.6,1.6,1.6h18.61c.88,0,1.6-.72,1.6-1.6v-50.39l16.27,50.88c.21.66.83,1.11,1.52,1.11h14.82c.69,0,1.31-.45,1.52-1.11l16.7-51.89-.09,51.39c0,.42.17.83.47,1.13.3.3.71.47,1.13.47h18.72c.88,0,1.6-.72,1.6-1.6V25.07c0-.88-.71-1.6-1.6-1.6Z"/>
        <path d="M439.13,22.47c-25.45,0-40.04,15.73-40.04,43.16s14.6,43.39,40.04,43.39,40.27-15.81,40.27-43.39-14.68-43.16-40.27-43.16ZM439.13,88.44c-10.77,0-16.23-7.67-16.23-22.81s5.46-22.59,16.23-22.59,16.57,7.6,16.57,22.59-5.57,22.81-16.57,22.81Z"/>
        <path d="M546.67,23.47h-69.09c-.88,0-1.6.72-1.6,1.6v16.49c0,.88.71,1.6,1.6,1.6h23.14v63.15c0,.88.71,1.6,1.6,1.6h19.61c.88,0,1.6-.72,1.6-1.6v-63.15h23.14c.88,0,1.6-.72,1.6-1.6v-16.49c0-.88-.71-1.6-1.6-1.6Z"/>
        <path d="M625.09,47.58c0-14.76-10.79-23.93-28.16-23.93h-43.13c-.78,0-1.42.64-1.42,1.42v81.24c0,.78.64,1.42,1.42,1.42h19.5c.78,0,1.42-.64,1.42-1.42v-28.33h21.32c4.65,0,5.48,1.61,5.48,6.16v15.26c0,3.17.38,5.47,1.23,7.47.22.52.74.86,1.31.86h18.38c.78,0,1.42-.64,1.42-1.42v-24.29c0-7.69-1.59-12.89-9.04-15.59,6.49-3.67,10.26-10.46,10.26-18.85ZM601.86,51.15c0,5.33-3.54,8.38-9.72,8.38h-17.41v-16.66h17.63c3.55,0,9.5,1.08,9.5,8.28Z"/>
        <rect x="632" y="23.47" width="22.7" height="84.43" rx="1.6" ry="1.6"/>
        <path d="M730.22,88.11h-39.36l39.02-46.3c.24-.29.38-.65.38-1.03v-15.71c0-.88-.71-1.6-1.6-1.6h-65.42c-.88,0-1.6.72-1.6,1.6v16.49c0,.88.71,1.6,1.6,1.6h35.5l-38.18,46.2c-.24.29-.37.65-.37,1.02v15.94c0,.88.71,1.6,1.6,1.6h68.42c.88,0,1.6-.72,1.6-1.6v-16.6c0-.88-.71-1.6-1.6-1.6Z"/>
      </g>
      <g>
        <path d="M299.42,173.11v-45.71h18.93c4.3,0,8.02.93,11.16,2.79,3.14,1.86,5.55,4.51,7.24,7.93,1.69,3.43,2.54,7.48,2.54,12.16s-.82,8.54-2.45,11.94c-1.63,3.41-4.01,6.07-7.15,7.99-3.14,1.92-6.92,2.88-11.35,2.88h-18.93ZM318.04,133.98h-11.16v32.54h11.16c4.22,0,7.53-1.44,9.91-4.33,2.38-2.88,3.57-6.88,3.57-11.97s-1.17-9.03-3.51-11.91c-2.34-2.88-5.66-4.33-9.97-4.33Z"/>
        <path d="M347.01,173.11v-45.71h32.73v6.39h-25.27v12.85h22.63v6.21h-22.63v13.79h27.15v6.46h-34.61Z"/>
        <path d="M388.08,173.11v-45.71h11.97l12.04,34.8,5.75-16.44,6.42-18.36h11.72v45.71h-7.33l.31-39.25-13.85,39.25h-6.33l-13.54-39.19v39.19h-7.15Z"/>
        <path d="M464.88,173.73c-4.39,0-8.16-.93-11.32-2.79-3.15-1.86-5.59-4.54-7.3-8.02-1.72-3.49-2.57-7.7-2.57-12.63s.84-9.08,2.51-12.57c1.67-3.49,4.08-6.18,7.24-8.06,3.15-1.88,6.97-2.82,11.44-2.82s8.23.92,11.41,2.76c3.17,1.84,5.62,4.5,7.33,7.99,1.71,3.49,2.57,7.7,2.57,12.63s-.84,9.09-2.51,12.6c-1.67,3.51-4.1,6.21-7.27,8.09-3.18,1.88-7.02,2.82-11.54,2.82ZM464.88,166.96c4.22,0,7.51-1.39,9.87-4.17,2.36-2.78,3.54-6.95,3.54-12.51,0-5.27-1.13-9.37-3.39-12.32-2.26-2.95-5.6-4.42-10.03-4.42-4.14,0-7.4,1.39-9.78,4.17-2.38,2.78-3.57,6.95-3.57,12.51,0,5.23,1.13,9.32,3.39,12.29,2.26,2.97,5.58,4.45,9.97,4.45Z"/>
        <path d="M493.84,173.11v-45.71h7.46v39.25h24.7v6.46h-32.16Z"/>
        <path d="M538.48,173.11h-7.46v-45.71h7.46v45.71Z"/>
        <path d="M548.76,173.11v-45.71h18.93c4.3,0,8.02.93,11.16,2.79,3.14,1.86,5.55,4.51,7.24,7.93,1.69,3.43,2.54,7.48,2.54,12.16s-.82,8.54-2.45,11.94-4.01,6.07-7.15,7.99c-3.14,1.92-6.92,2.88-11.35,2.88h-18.93ZM567.38,133.98h-11.16v32.54h11.16c4.22,0,7.53-1.44,9.91-4.33,2.38-2.88,3.57-6.88,3.57-11.97s-1.17-9.03-3.51-11.91c-2.34-2.88-5.66-4.33-9.97-4.33Z"/>
        <path d="M615.78,173.73c-4.39,0-8.16-.93-11.32-2.79-3.15-1.86-5.59-4.54-7.3-8.02-1.72-3.49-2.57-7.7-2.57-12.63s.84-9.08,2.51-12.57c1.67-3.49,4.08-6.18,7.24-8.06,3.15-1.88,6.97-2.82,11.44-2.82s8.23.92,11.41,2.76c3.17,1.84,5.62,4.5,7.33,7.99,1.71,3.49,2.57,7.7,2.57,12.63s-.84,9.09-2.51,12.6c-1.67,3.51-4.1,6.21-7.27,8.09-3.18,1.88-7.02,2.82-11.54,2.82ZM615.78,166.96c4.22,0,7.51-1.39,9.87-4.17,2.36-2.78,3.54-6.95,3.54-12.51,0-5.27-1.13-9.37-3.39-12.32s-5.6-4.42-10.03-4.42c-4.14,0-7.4,1.39-9.78,4.17-2.38,2.78-3.57,6.95-3.57,12.51,0,5.23,1.13,9.32,3.39,12.29,2.26,2.97,5.58,4.45,9.97,4.45Z"/>
        <path d="M644.75,173.11v-45.71h22.26c4.64,0,8.24,1.12,10.81,3.35,2.57,2.24,3.86,5.21,3.86,8.94,0,2.67-.68,4.98-2.04,6.93-1.36,1.94-3.25,3.29-5.67,4.04,2.05.42,3.55,1.01,4.51,1.79.96.77,1.6,1.71,1.91,2.82.31,1.11.47,2.41.47,3.92v10.78c0,.5.06.99.19,1.47.12.48.42.81.88.97v.69h-7.65c-.29-.42-.51-.92-.66-1.5s-.22-1.42-.22-2.51v-8.78c0-2.13-.34-3.72-1.03-4.77-.69-1.04-2.14-1.57-4.36-1.57h-15.8v19.12h-7.46ZM652.21,147.71h13.73c2.55,0,4.5-.61,5.86-1.82,1.36-1.21,2.04-2.95,2.04-5.2s-.69-3.96-2.07-5.11c-1.38-1.15-3.3-1.72-5.77-1.72h-13.79v13.86Z"/>
        <path d="M686.44,173.11l18.24-45.71h8.65l18.24,45.71h-7.9l-4.33-11.1h-20.88l-4.33,11.1h-7.71ZM706.69,141.07l-5.7,14.61h15.93l-5.64-14.61c-.75-1.88-1.53-4.01-2.32-6.4-.75,2.34-1.5,4.47-2.26,6.4Z"/>
      </g>
    </g>
  </g>
</svg>