<?xml version="1.0" encoding="UTF-8"?>
<svg id="Camada_2" data-name="Camada 2" xmlns="http://www.w3.org/2000/svg" viewBox="0 0 731.82 196.2">
  <defs>
    <style>
      .cls-1 {
        fill: #f2f2f2;
      }

      .cls-2 {
        fill: #ffa800;
      }

      .cls-3 {
        fill: #ffa300;
      }

      .cls-4 {
        fill: #ffbc00;
      }
    </style>
  </defs>
  <g id="Camada_1" data-name="Camada 1">
    <g>
      <path class="cls-3" d="M119.75,128.33v67.83c-.63-.07-1.24-.23-1.8-.48-.52-.23-.99-.56-1.42-.93l-.65-.57s0,0,0,0L4.24,97.51C1.37,95.02-.19,91.34.02,87.54c.99-18.61,6.99-28.49,14.84-33.23l.77-.44c17.76-9.84,44.18,5.25,44.18,5.25l29.97,17.3h0s.1.06.15.09h0c29.82,17.34,29.82,51.82,29.82,51.82Z"/>
      <path class="cls-2" d="M89.93,76.51s-.1-.05-.15-.08h0s.15.08.15.08Z"/>
      <path class="cls-2" d="M89.93,76.51s-.1-.05-.15-.08h0s.15.08.15.08Z"/>
      <path class="cls-4" d="M209.65,76.42v65.68c0,2.18-1.17,4.19-3.06,5.27l-.18.1-17.25,9.96c-1.09.63-1.98.13-1.98-1.12v-74.25c0-.84-.56-1.19-1.28-.84-.72.34-1.39,1.3-1.48,2.17l-4.64,44.98-3.57,34.63c-.11,1.17-.97,2.45-1.95,3.02l-19.12,11.04c-.98.57-1.82.27-1.95-.77l-7.95-67.86-.27-2.27c-.09-.77-.77-.95-1.48-.46-.4.27-.75.69-.98,1.16-.19.39-.3.8-.3,1.17v74.26c0,1.25-.89,2.78-1.98,3.41l-16.43,9.49-.6.35c-.83.42-1.77.66-2.77.66-.23,0-.46-.01-.68-.04v-67.83s0-34.49-29.82-51.82h0s-.15-.09-.15-.09h0l-29.97-17.3s-26.43-15.09-44.18-5.25L93.13,9.15s.01,0,.04-.02l5.5-3.17c7.76-3.84,22.9-9.11,40.29-3.54,5.47,1.97,9.46,4.08,10.49,4.65.03.02.06.03.09.05.05.03.11.06.16.09,0,0,.01,0,.02,0l29.97,17.3c10.41,6.01,17.2,14.11,21.63,22.11,8.34,15.05,8.34,29.79,8.34,29.79Z"/>
    </g>
    <g>
      <g>
        <path class="cls-1" d="M391.65,21.5h-30.09c-.69,0-1.31.45-1.52,1.11l-14.07,43.92-13.87-43.91c-.21-.66-.83-1.12-1.52-1.12h-30.2c-.88,0-1.6.72-1.6,1.6v81.24c0,.88.71,1.6,1.6,1.6h18.61c.88,0,1.6-.72,1.6-1.6v-50.39l16.27,50.88c.21.66.83,1.11,1.52,1.11h14.82c.69,0,1.31-.45,1.52-1.11l16.7-51.89-.09,51.39c0,.42.17.83.47,1.13.3.3.71.47,1.13.47h18.72c.88,0,1.6-.72,1.6-1.6V23.1c0-.88-.71-1.6-1.6-1.6Z"/>
        <path class="cls-1" d="M439.13,20.5c-25.45,0-40.04,15.73-40.04,43.16s14.6,43.39,40.04,43.39,40.27-15.81,40.27-43.39-14.68-43.16-40.27-43.16ZM439.13,86.47c-10.77,0-16.23-7.67-16.23-22.81s5.46-22.59,16.23-22.59,16.57,7.6,16.57,22.59-5.57,22.81-16.57,22.81Z"/>
        <path class="cls-1" d="M546.67,21.5h-69.09c-.88,0-1.6.72-1.6,1.6v16.49c0,.88.71,1.6,1.6,1.6h23.14v63.15c0,.88.71,1.6,1.6,1.6h19.61c.88,0,1.6-.72,1.6-1.6v-63.15h23.14c.88,0,1.6-.72,1.6-1.6v-16.49c0-.88-.71-1.6-1.6-1.6Z"/>
        <path class="cls-1" d="M625.09,45.61c0-14.76-10.79-23.93-28.16-23.93h-43.13c-.78,0-1.42.64-1.42,1.42v81.24c0,.78.64,1.42,1.42,1.42h19.5c.78,0,1.42-.64,1.42-1.42v-28.33h21.32c4.65,0,5.48,1.61,5.48,6.16v15.26c0,3.17.38,5.47,1.23,7.47.22.52.74.86,1.31.86h18.38c.78,0,1.42-.64,1.42-1.42v-24.29c0-7.69-1.59-12.89-9.04-15.59,6.49-3.67,10.26-10.46,10.26-18.85ZM601.86,49.18c0,5.33-3.54,8.38-9.72,8.38h-17.41v-16.66h17.63c3.55,0,9.5,1.08,9.5,8.28Z"/>
        <rect class="cls-1" x="632" y="21.5" width="22.7" height="84.43" rx="1.6" ry="1.6"/>
        <path class="cls-1" d="M730.22,86.14h-39.36l39.02-46.3c.24-.29.38-.65.38-1.03v-15.71c0-.88-.71-1.6-1.6-1.6h-65.42c-.88,0-1.6.72-1.6,1.6v16.49c0,.88.71,1.6,1.6,1.6h35.5l-38.18,46.2c-.24.29-.37.65-.37,1.02v15.94c0,.88.71,1.6,1.6,1.6h68.42c.88,0,1.6-.72,1.6-1.6v-16.6c0-.88-.71-1.6-1.6-1.6Z"/>
      </g>
      <g>
        <path class="cls-1" d="M500.25,149.48v-24.47h10.14c2.3,0,4.3.5,5.97,1.49,1.68,1,2.97,2.41,3.88,4.25.91,1.83,1.36,4,1.36,6.51s-.44,4.57-1.31,6.39c-.87,1.82-2.15,3.25-3.83,4.28-1.68,1.03-3.7,1.54-6.07,1.54h-10.14ZM510.21,128.53h-5.97v17.42h5.97c2.26,0,4.03-.77,5.3-2.32,1.28-1.54,1.91-3.68,1.91-6.41s-.63-4.83-1.88-6.38c-1.25-1.54-3.03-2.32-5.34-2.32Z"/>
        <path class="cls-1" d="M525.72,149.48v-24.47h17.52v3.42h-13.53v6.88h12.12v3.32h-12.12v7.38h14.53v3.46h-18.53Z"/>
        <path class="cls-1" d="M547.7,149.48v-24.47h6.41l6.44,18.63,6.51-18.63h6.28v24.47h-3.93l.17-21.01-7.42,21.01h-3.39l-7.25-20.98v20.98h-3.83Z"/>
        <path class="cls-1" d="M588.81,149.81c-2.35,0-4.37-.5-6.06-1.49-1.69-1-2.99-2.43-3.91-4.3-.92-1.87-1.38-4.12-1.38-6.76s.45-4.86,1.34-6.73c.89-1.87,2.19-3.31,3.88-4.31,1.69-1.01,3.73-1.51,6.12-1.51s4.41.49,6.11,1.48c1.7.99,3.01,2.41,3.93,4.28.92,1.87,1.38,4.12,1.38,6.76s-.45,4.87-1.34,6.75c-.9,1.88-2.19,3.32-3.89,4.33-1.7,1.01-3.76,1.51-6.18,1.51ZM588.81,146.19c2.26,0,4.02-.74,5.29-2.23,1.26-1.49,1.9-3.72,1.9-6.7,0-2.82-.6-5.02-1.81-6.6s-3-2.37-5.37-2.37c-2.21,0-3.96.74-5.24,2.23-1.28,1.49-1.91,3.72-1.91,6.7,0,2.8.6,4.99,1.81,6.58,1.21,1.59,2.99,2.38,5.34,2.38Z"/>
        <path class="cls-1" d="M604.32,149.48v-24.47h3.99v21.01h13.22v3.46h-17.22Z"/>
        <path class="cls-1" d="M628.22,149.48h-3.99v-24.47h3.99v24.47Z"/>
        <path class="cls-1" d="M633.72,149.48v-24.47h10.14c2.3,0,4.3.5,5.97,1.49,1.68,1,2.97,2.41,3.88,4.25.91,1.83,1.36,4,1.36,6.51s-.44,4.57-1.31,6.39c-.87,1.82-2.15,3.25-3.83,4.28-1.68,1.03-3.7,1.54-6.07,1.54h-10.14ZM643.69,128.53h-5.97v17.42h5.97c2.26,0,4.03-.77,5.3-2.32,1.28-1.54,1.91-3.68,1.91-6.41s-.63-4.83-1.88-6.38c-1.25-1.54-3.03-2.32-5.34-2.32Z"/>
        <path class="cls-1" d="M669.6,149.81c-2.35,0-4.37-.5-6.06-1.49-1.69-1-2.99-2.43-3.91-4.3-.92-1.87-1.38-4.12-1.38-6.76s.45-4.86,1.34-6.73c.89-1.87,2.19-3.31,3.88-4.31,1.69-1.01,3.73-1.51,6.12-1.51s4.41.49,6.11,1.48c1.7.99,3.01,2.41,3.93,4.28.92,1.87,1.38,4.12,1.38,6.76s-.45,4.87-1.34,6.75c-.9,1.88-2.19,3.32-3.89,4.33-1.7,1.01-3.76,1.51-6.18,1.51ZM669.6,146.19c2.26,0,4.02-.74,5.29-2.23,1.26-1.49,1.9-3.72,1.9-6.7,0-2.82-.6-5.02-1.81-6.6-1.21-1.58-3-2.37-5.37-2.37-2.21,0-3.96.74-5.24,2.23-1.28,1.49-1.91,3.72-1.91,6.7,0,2.8.6,4.99,1.81,6.58,1.21,1.59,2.99,2.38,5.34,2.38Z"/>
        <path class="cls-1" d="M685.1,149.48v-24.47h11.91c2.48,0,4.41.6,5.79,1.8,1.38,1.2,2.06,2.79,2.06,4.78,0,1.43-.37,2.67-1.09,3.71-.73,1.04-1.74,1.76-3.04,2.16,1.1.22,1.9.54,2.42.96.52.41.86.92,1.02,1.51.17.59.25,1.29.25,2.1v5.77c0,.27.03.53.1.79.07.26.22.43.47.52v.37h-4.09c-.16-.22-.27-.49-.35-.81s-.12-.76-.12-1.34v-4.7c0-1.14-.18-1.99-.55-2.55-.37-.56-1.15-.84-2.33-.84h-8.46v10.24h-3.99ZM689.1,135.88h7.35c1.36,0,2.41-.32,3.14-.97.73-.65,1.09-1.58,1.09-2.79s-.37-2.12-1.11-2.74c-.74-.61-1.77-.92-3.09-.92h-7.38v7.42Z"/>
        <path class="cls-1" d="M707.42,149.48l9.77-24.47h4.63l9.77,24.47h-4.23l-2.32-5.94h-11.18l-2.32,5.94h-4.13ZM718.26,132.33l-3.05,7.82h8.53l-3.02-7.82c-.4-1.01-.82-2.15-1.24-3.42-.4,1.25-.8,2.39-1.21,3.42Z"/>
      </g>
    </g>
  </g>
</svg>