<?xml version="1.0" encoding="UTF-8"?>
<svg id="Camada_3" data-name="Camada 3" xmlns="http://www.w3.org/2000/svg" viewBox="0 0 832.72 196.2">
  <defs>
    <style>
      .cls-1 {
        fill: #f2f2f2;
      }

      .cls-2 {
        fill: #ffa800;
      }

      .cls-3 {
        fill: #ffa300;
      }

      .cls-4 {
        fill: #ffbc00;
      }
    </style>
  </defs>
  <g id="Camada_1" data-name="Camada 1">
    <g>
      <path class="cls-1" d="M413.29,32.95h-37.1c-.86,0-1.61.55-1.88,1.37l-17.35,54.15-17.1-54.15c-.26-.82-1.02-1.38-1.88-1.38h-37.24c-1.09,0-1.97.88-1.97,1.97v100.17c0,1.09.88,1.97,1.97,1.97h22.95c1.09,0,1.97-.88,1.97-1.97v-62.13l20.07,62.73c.26.82,1.02,1.37,1.88,1.37h18.28c.85,0,1.61-.55,1.87-1.37l20.59-63.98-.11,63.37c0,.52.21,1.02.58,1.39.37.37.87.58,1.39.58h23.08c1.09,0,1.97-.88,1.97-1.97V34.92c0-1.09-.88-1.97-1.97-1.97Z"/>
      <path class="cls-1" d="M471.83,31.72c-31.38,0-49.38,19.4-49.38,53.22s18,53.5,49.38,53.5,49.65-19.5,49.65-53.5-18.1-53.22-49.65-53.22ZM471.83,113.06c-13.28,0-20.02-9.46-20.02-28.12s6.73-27.85,20.02-27.85,20.43,9.37,20.43,27.85-6.87,28.12-20.43,28.12Z"/>
      <path class="cls-1" d="M604.43,32.95h-85.19c-1.09,0-1.97.88-1.97,1.97v20.34c0,1.09.88,1.97,1.97,1.97h28.54v77.87c0,1.09.88,1.97,1.97,1.97h24.18c1.09,0,1.97-.88,1.97-1.97V57.23h28.54c1.09,0,1.97-.88,1.97-1.97v-20.34c0-1.09-.88-1.97-1.97-1.97Z"/>
      <path class="cls-1" d="M701.13,62.68c0-18.2-13.3-29.51-34.72-29.51h-53.18c-.97,0-1.75.78-1.75,1.75v100.17c0,.97.78,1.75,1.75,1.75h24.05c.97,0,1.75-.78,1.75-1.75v-34.94h26.28c5.74,0,6.76,1.99,6.76,7.6v18.82c0,3.91.47,6.75,1.52,9.21.28.65.91,1.06,1.61,1.06h22.67c.97,0,1.75-.78,1.75-1.75v-29.95c0-9.48-1.96-15.9-11.14-19.22,8.01-4.53,12.65-12.9,12.65-23.24ZM672.48,67.08c0,6.57-4.37,10.34-11.99,10.34h-21.46v-20.54h21.74c4.37,0,11.71,1.33,11.71,10.21Z"/>
      <rect class="cls-1" x="709.65" y="32.95" width="27.98" height="104.11" rx="1.97" ry="1.97"/>
      <path class="cls-1" d="M830.75,112.65h-48.53l48.11-57.08c.3-.36.46-.8.46-1.27v-19.37c0-1.09-.88-1.97-1.97-1.97h-80.66c-1.09,0-1.97.88-1.97,1.97v20.34c0,1.09.88,1.97,1.97,1.97h43.77l-47.08,56.96c-.29.35-.45.8-.45,1.25v19.65c0,1.09.88,1.97,1.97,1.97h84.37c1.09,0,1.97-.88,1.97-1.97v-20.47c0-1.09-.88-1.97-1.97-1.97Z"/>
    </g>
    <g>
      <path class="cls-3" d="M119.75,128.33v67.83c-.63-.07-1.24-.23-1.8-.48-.52-.23-.99-.56-1.42-.93l-.65-.57s0,0,0,0L4.24,97.51C1.37,95.02-.19,91.34.02,87.54c.99-18.61,6.99-28.49,14.84-33.23l.77-.44c17.76-9.84,44.18,5.25,44.18,5.25l29.97,17.3h0s.1.06.15.09h0c29.82,17.34,29.82,51.82,29.82,51.82Z"/>
      <path class="cls-2" d="M89.93,76.51s-.1-.05-.15-.08h0s.15.08.15.08Z"/>
      <path class="cls-2" d="M89.93,76.51s-.1-.05-.15-.08h0s.15.08.15.08Z"/>
      <path class="cls-4" d="M209.65,76.42v65.68c0,2.18-1.17,4.19-3.06,5.27l-.18.1-17.25,9.96c-1.09.63-1.98.13-1.98-1.12v-74.25c0-.84-.56-1.19-1.28-.84-.72.34-1.39,1.3-1.48,2.17l-4.64,44.98-3.57,34.63c-.11,1.17-.97,2.45-1.95,3.02l-19.12,11.04c-.98.57-1.82.27-1.95-.77l-7.95-67.86-.27-2.27c-.09-.77-.77-.95-1.48-.46-.4.27-.75.69-.98,1.16-.19.39-.3.8-.3,1.17v74.26c0,1.25-.89,2.78-1.98,3.41l-16.43,9.49-.6.35c-.83.42-1.77.66-2.77.66-.23,0-.46-.01-.68-.04v-67.83s0-34.49-29.82-51.82h0s-.15-.09-.15-.09h0l-29.97-17.3s-26.43-15.09-44.18-5.25L93.13,9.15s.01,0,.04-.02l5.5-3.17c7.76-3.84,22.9-9.11,40.29-3.54,5.47,1.97,9.46,4.08,10.49,4.65.03.02.06.03.09.05.05.03.11.06.16.09,0,0,.01,0,.02,0l29.97,17.3c10.41,6.01,17.2,14.11,21.63,22.11,8.34,15.05,8.34,29.79,8.34,29.79Z"/>
    </g>
  </g>
</svg>