<?xml version="1.0" encoding="UTF-8"?>
<svg id="Camada_3" data-name="Camada 3" xmlns="http://www.w3.org/2000/svg" viewBox="0 0 732.49 196.29">
  <g id="Camada_1" data-name="Camada 1">
    <g>
      <path d="M110,130.37v59.13c0,1.01-1.19,1.55-1.95.89L3.19,99.05c-.99-.86-1.69-1.78-2.17-2.67-.75-1.69-1.11-3.55-1.01-5.44.12-2.23.31-4.33.57-6.3.01-.09.02-.18.04-.27,1.34-9.1,4.18-14.64,6.57-17.82,3.12-4.17,6.12-5.29,6.12-5.29l.22-.09c4.3-1.96,8.83-2.7,13.23-2.7,13.99,0,26.76,7.51,26.92,7.61l28.76,16.6c11.36,6.56,19.44,16.54,24.03,29.67,3.46,9.9,3.52,17.97,3.52,18.04Z"/>
      <path d="M209.58,76.59v65.85c0,2.18-1.17,4.19-3.06,5.26l-.18.1-17.29,9.98c-1.09.63-1.98.13-1.98-1.12v-74.41c0-.84-.56-1.19-1.28-.85-.72.34-1.39,1.3-1.49,2.18l-4.65,45.08-3.58,34.7c-.11,1.17-.97,2.45-1.95,3.02l-19.16,11.06c-.98.57-1.83.27-1.95-.77l-7.97-68-.27-2.27c-.09-.77-.77-.95-1.49-.46-.4.27-.75.69-.98,1.16-.19.39-.3.8-.3,1.17v74.42c0,1.25-.89,2.78-1.98,3.41l-17.09,9.87h0c-1.56.9-3.51-.23-3.51-2.03v-64.99c0-.37-.05-9.21-3.89-20.31-.49-1.43-1.07-2.93-1.73-4.48-.03-.07-.06-.14-.09-.21-4.14-9.61-11.73-21.16-25.55-29.14l-30.01-17.33c-.81-.49-10.99-6.44-23.7-8.2-2.93-.41-3.67-4.31-1.11-5.79L92.82,9.17l.04-.02,5.51-3.17c7.78-3.85,22.95-9.13,40.38-3.54,5.48,1.97,9.48,4.09,10.51,4.66.03.02.06.03.09.05.05.03.11.06.16.09,0,0,.01,0,.02,0l30.03,17.34c10.43,6.02,17.24,14.14,21.68,22.16,8.35,15.09,8.35,29.86,8.35,29.86Z"/>
    </g>
    <g>
      <g>
        <path d="M392.32,23.48h-30.09c-.69,0-1.31.45-1.52,1.11l-14.07,43.92-13.87-43.91c-.21-.66-.83-1.12-1.52-1.12h-30.2c-.88,0-1.6.72-1.6,1.6v81.24c0,.88.71,1.6,1.6,1.6h18.61c.88,0,1.6-.72,1.6-1.6v-50.39l16.27,50.88c.21.66.83,1.11,1.52,1.11h14.82c.69,0,1.31-.45,1.52-1.11l16.7-51.89-.09,51.39c0,.42.17.83.47,1.13.3.3.71.47,1.13.47h18.72c.88,0,1.6-.72,1.6-1.6V25.08c0-.88-.71-1.6-1.6-1.6Z"/>
        <path d="M439.8,22.48c-25.45,0-40.04,15.73-40.04,43.16s14.6,43.39,40.04,43.39,40.27-15.81,40.27-43.39-14.68-43.16-40.27-43.16ZM439.8,88.45c-10.77,0-16.23-7.67-16.23-22.81s5.46-22.59,16.23-22.59,16.57,7.6,16.57,22.59-5.57,22.81-16.57,22.81Z"/>
        <path d="M547.34,23.48h-69.09c-.88,0-1.6.72-1.6,1.6v16.49c0,.88.71,1.6,1.6,1.6h23.14v63.15c0,.88.71,1.6,1.6,1.6h19.61c.88,0,1.6-.72,1.6-1.6v-63.15h23.14c.88,0,1.6-.72,1.6-1.6v-16.49c0-.88-.71-1.6-1.6-1.6Z"/>
        <path d="M625.77,47.59c0-14.76-10.79-23.93-28.16-23.93h-43.13c-.78,0-1.42.64-1.42,1.42v81.24c0,.78.64,1.42,1.42,1.42h19.5c.78,0,1.42-.64,1.42-1.42v-28.33h21.32c4.65,0,5.48,1.61,5.48,6.16v15.26c0,3.17.38,5.47,1.23,7.47.22.52.74.86,1.31.86h18.38c.78,0,1.42-.64,1.42-1.42v-24.29c0-7.69-1.59-12.89-9.04-15.59,6.49-3.67,10.26-10.46,10.26-18.85ZM602.53,51.16c0,5.33-3.54,8.38-9.72,8.38h-17.41v-16.66h17.63c3.55,0,9.5,1.08,9.5,8.28Z"/>
        <rect x="632.68" y="23.48" width="22.7" height="84.43" rx="1.6" ry="1.6"/>
        <path d="M730.89,88.12h-39.36l39.02-46.3c.24-.29.38-.65.38-1.03v-15.71c0-.88-.71-1.6-1.6-1.6h-65.42c-.88,0-1.6.72-1.6,1.6v16.49c0,.88.71,1.6,1.6,1.6h35.5l-38.18,46.2c-.24.29-.37.65-.37,1.02v15.94c0,.88.71,1.6,1.6,1.6h68.42c.88,0,1.6-.72,1.6-1.6v-16.6c0-.88-.71-1.6-1.6-1.6Z"/>
      </g>
      <g>
        <path d="M299.46,173.18v-45.77h18.96c4.31,0,8.04.93,11.18,2.79,3.14,1.86,5.56,4.51,7.25,7.94,1.69,3.43,2.54,7.49,2.54,12.18s-.82,8.55-2.45,11.96c-1.63,3.41-4.02,6.08-7.16,8-3.14,1.93-6.93,2.89-11.36,2.89h-18.96ZM318.1,134h-11.18v32.59h11.18c4.23,0,7.54-1.44,9.92-4.33,2.39-2.89,3.58-6.89,3.58-11.99s-1.17-9.04-3.51-11.93c-2.34-2.89-5.67-4.33-9.99-4.33Z"/>
        <path d="M347.11,173.18v-45.77h32.78v6.4h-25.3v12.87h22.67v6.22h-22.67v13.81h27.19v6.47h-34.66Z"/>
        <path d="M388.24,173.18v-45.77h11.99l12.05,34.85,12.18-34.85h11.74v45.77h-7.35l.31-39.31-13.88,39.31h-6.34l-13.56-39.24v39.24h-7.16Z"/>
        <path d="M465.15,173.81c-4.39,0-8.17-.93-11.33-2.79-3.16-1.86-5.6-4.54-7.31-8.04-1.72-3.49-2.58-7.71-2.58-12.65s.84-9.09,2.51-12.59c1.67-3.49,4.09-6.19,7.25-8.07,3.16-1.88,6.98-2.83,11.46-2.83s8.25.92,11.43,2.76c3.18,1.84,5.63,4.51,7.35,8.01,1.72,3.5,2.58,7.71,2.58,12.65s-.84,9.1-2.51,12.62c-1.68,3.52-4.1,6.22-7.29,8.1-3.18,1.88-7.03,2.83-11.55,2.83ZM465.15,167.03c4.23,0,7.52-1.39,9.89-4.18,2.36-2.78,3.55-6.96,3.55-12.53,0-5.27-1.13-9.39-3.39-12.34-2.26-2.95-5.61-4.43-10.05-4.43-4.14,0-7.41,1.39-9.79,4.18-2.39,2.78-3.58,6.96-3.58,12.53,0,5.23,1.13,9.33,3.39,12.31,2.26,2.97,5.59,4.46,9.98,4.46Z"/>
        <path d="M494.16,173.18v-45.77h7.47v39.31h24.74v6.47h-32.21Z"/>
        <path d="M538.87,173.18h-7.47v-45.77h7.47v45.77Z"/>
        <path d="M549.17,173.18v-45.77h18.96c4.31,0,8.04.93,11.18,2.79,3.14,1.86,5.56,4.51,7.25,7.94,1.69,3.43,2.54,7.49,2.54,12.18s-.82,8.55-2.45,11.96c-1.63,3.41-4.02,6.08-7.16,8-3.14,1.93-6.93,2.89-11.36,2.89h-18.96ZM567.81,134h-11.18v32.59h11.18c4.23,0,7.54-1.44,9.92-4.33,2.39-2.89,3.58-6.89,3.58-11.99s-1.17-9.04-3.51-11.93c-2.34-2.89-5.67-4.33-9.99-4.33Z"/>
        <path d="M616.29,173.81c-4.39,0-8.17-.93-11.33-2.79-3.16-1.86-5.6-4.54-7.31-8.04-1.72-3.49-2.58-7.71-2.58-12.65s.84-9.09,2.51-12.59c1.67-3.49,4.09-6.19,7.25-8.07,3.16-1.88,6.98-2.83,11.46-2.83s8.25.92,11.43,2.76c3.18,1.84,5.63,4.51,7.35,8.01,1.72,3.5,2.58,7.71,2.58,12.65s-.84,9.1-2.51,12.62c-1.68,3.52-4.1,6.22-7.29,8.1-3.18,1.88-7.03,2.83-11.55,2.83ZM616.29,167.03c4.23,0,7.52-1.39,9.89-4.18,2.36-2.78,3.55-6.96,3.55-12.53,0-5.27-1.13-9.39-3.39-12.34s-5.61-4.43-10.05-4.43c-4.14,0-7.41,1.39-9.79,4.18-2.39,2.78-3.58,6.96-3.58,12.53,0,5.23,1.13,9.33,3.39,12.31,2.26,2.97,5.59,4.46,9.98,4.46Z"/>
        <path d="M645.3,173.18v-45.77h22.29c4.64,0,8.26,1.12,10.83,3.36,2.57,2.24,3.86,5.22,3.86,8.95,0,2.68-.68,4.99-2.04,6.94-1.36,1.95-3.25,3.3-5.68,4.05,2.05.42,3.56,1.02,4.52,1.79.96.77,1.6,1.72,1.92,2.83.32,1.11.47,2.42.47,3.92v10.8c0,.5.06.99.19,1.48.12.48.42.81.88.97v.69h-7.66c-.29-.42-.51-.92-.66-1.51s-.22-1.42-.22-2.51v-8.79c0-2.13-.35-3.73-1.04-4.77-.69-1.05-2.15-1.57-4.36-1.57h-15.82v19.15h-7.47ZM652.77,147.75h13.75c2.55,0,4.51-.61,5.87-1.82,1.36-1.21,2.04-2.95,2.04-5.21s-.69-3.97-2.07-5.12c-1.38-1.15-3.31-1.73-5.78-1.73h-13.81v13.88Z"/>
        <path d="M687.05,173.18l18.27-45.77h8.66l18.27,45.77h-7.91l-4.33-11.11h-20.91l-4.33,11.11h-7.72ZM707.33,141.1l-5.71,14.63h15.95l-5.65-14.63c-.76-1.88-1.53-4.02-2.32-6.4-.75,2.34-1.51,4.48-2.26,6.4Z"/>
      </g>
    </g>
  </g>
</svg>