<?xml version="1.0" encoding="UTF-8"?>
<svg id="Camada_2" data-name="Camada 2" xmlns="http://www.w3.org/2000/svg" viewBox="0 0 732.49 196.29">
  <g id="Camada_1" data-name="Camada 1">
    <g>
      <path d="M110,130.37v59.13c0,1.01-1.19,1.55-1.95.89L3.19,99.05c-.99-.86-1.69-1.78-2.17-2.67-.75-1.69-1.11-3.55-1.01-5.44.12-2.23.31-4.33.57-6.3.01-.09.02-.18.04-.27,1.34-9.1,4.18-14.64,6.57-17.82,3.12-4.17,6.12-5.29,6.12-5.29l.22-.09c4.3-1.96,8.83-2.7,13.23-2.7,13.99,0,26.76,7.51,26.92,7.61l28.76,16.6c11.36,6.56,19.44,16.54,24.03,29.67,3.46,9.9,3.52,17.97,3.52,18.04Z"/>
      <path d="M209.58,76.59v65.85c0,2.18-1.17,4.19-3.06,5.26l-.18.1-17.29,9.98c-1.09.63-1.98.13-1.98-1.12v-74.41c0-.84-.56-1.19-1.28-.85-.72.34-1.39,1.3-1.49,2.18l-4.65,45.08-3.58,34.7c-.11,1.17-.97,2.45-1.95,3.02l-19.16,11.06c-.98.57-1.83.27-1.95-.77l-7.97-68-.27-2.27c-.09-.77-.77-.95-1.49-.46-.4.27-.75.69-.98,1.16-.19.39-.3.8-.3,1.17v74.42c0,1.25-.89,2.78-1.98,3.41l-17.09,9.87h0c-1.56.9-3.51-.23-3.51-2.03v-64.99c0-.37-.05-9.21-3.89-20.31-.49-1.43-1.07-2.93-1.73-4.48-.03-.07-.06-.14-.09-.21-4.14-9.61-11.73-21.16-25.55-29.14l-30.01-17.33c-.81-.49-10.99-6.44-23.7-8.2-2.93-.41-3.67-4.31-1.11-5.79L92.82,9.17l.04-.02,5.51-3.17c7.78-3.85,22.95-9.13,40.38-3.54,5.48,1.97,9.48,4.09,10.51,4.66.03.02.06.03.09.05.05.03.11.06.16.09,0,0,.01,0,.02,0l30.03,17.34c10.43,6.02,17.24,14.14,21.68,22.16,8.35,15.09,8.35,29.86,8.35,29.86Z"/>
    </g>
    <g>
      <g>
        <path d="M392.32,34.5h-30.09c-.69,0-1.31.45-1.52,1.11l-14.07,43.92-13.87-43.91c-.21-.66-.83-1.12-1.52-1.12h-30.2c-.88,0-1.6.72-1.6,1.6v81.24c0,.88.71,1.6,1.6,1.6h18.61c.88,0,1.6-.72,1.6-1.6v-50.39l16.27,50.88c.21.66.83,1.11,1.52,1.11h14.82c.69,0,1.31-.45,1.52-1.11l16.7-51.89-.09,51.39c0,.42.17.83.47,1.13.3.3.71.47,1.13.47h18.72c.88,0,1.6-.72,1.6-1.6V36.09c0-.88-.71-1.6-1.6-1.6Z"/>
        <path d="M439.8,33.49c-25.45,0-40.04,15.73-40.04,43.16s14.6,43.39,40.04,43.39,40.27-15.81,40.27-43.39-14.68-43.16-40.27-43.16ZM439.8,99.47c-10.77,0-16.23-7.67-16.23-22.81s5.46-22.59,16.23-22.59,16.57,7.6,16.57,22.59-5.57,22.81-16.57,22.81Z"/>
        <path d="M547.34,34.5h-69.09c-.88,0-1.6.72-1.6,1.6v16.49c0,.88.71,1.6,1.6,1.6h23.14v63.15c0,.88.71,1.6,1.6,1.6h19.61c.88,0,1.6-.72,1.6-1.6v-63.15h23.14c.88,0,1.6-.72,1.6-1.6v-16.49c0-.88-.71-1.6-1.6-1.6Z"/>
        <path d="M625.77,58.61c0-14.76-10.79-23.93-28.16-23.93h-43.13c-.78,0-1.42.64-1.42,1.42v81.24c0,.78.64,1.42,1.42,1.42h19.5c.78,0,1.42-.64,1.42-1.42v-28.33h21.32c4.65,0,5.48,1.61,5.48,6.16v15.26c0,3.17.38,5.47,1.23,7.47.22.52.74.86,1.31.86h18.38c.78,0,1.42-.64,1.42-1.42v-24.29c0-7.69-1.59-12.89-9.04-15.59,6.49-3.67,10.26-10.46,10.26-18.85ZM602.53,62.18c0,5.33-3.54,8.38-9.72,8.38h-17.41v-16.66h17.63c3.55,0,9.5,1.08,9.5,8.28Z"/>
        <rect x="632.68" y="34.5" width="22.7" height="84.43" rx="1.6" ry="1.6"/>
        <path d="M730.89,99.13h-39.36l39.02-46.3c.24-.29.38-.65.38-1.03v-15.71c0-.88-.71-1.6-1.6-1.6h-65.42c-.88,0-1.6.72-1.6,1.6v16.49c0,.88.71,1.6,1.6,1.6h35.5l-38.18,46.2c-.24.29-.37.65-.37,1.02v15.94c0,.88.71,1.6,1.6,1.6h68.42c.88,0,1.6-.72,1.6-1.6v-16.6c0-.88-.71-1.6-1.6-1.6Z"/>
      </g>
      <g>
        <path d="M501.17,162.46v-24.44h10.12c2.3,0,4.29.5,5.97,1.49,1.68.99,2.97,2.41,3.87,4.24.9,1.83,1.36,4,1.36,6.5s-.44,4.56-1.31,6.39c-.87,1.82-2.15,3.25-3.82,4.27-1.68,1.03-3.7,1.54-6.07,1.54h-10.12ZM511.13,141.54h-5.97v17.4h5.97c2.26,0,4.02-.77,5.3-2.31,1.27-1.54,1.91-3.68,1.91-6.4s-.63-4.83-1.88-6.37c-1.25-1.54-3.03-2.31-5.33-2.31Z"/>
        <path d="M526.62,162.46v-24.44h17.5v3.42h-13.51v6.87h12.1v3.32h-12.1v7.38h14.52v3.45h-18.51Z"/>
        <path d="M548.58,162.46v-24.44h6.4l6.44,18.61,6.5-18.61h6.27v24.44h-3.92l.17-20.99-7.41,20.99h-3.39l-7.24-20.95v20.95h-3.82Z"/>
        <path d="M589.64,162.79c-2.35,0-4.36-.5-6.05-1.49-1.69-.99-2.99-2.43-3.9-4.29-.92-1.87-1.38-4.12-1.38-6.76s.45-4.86,1.34-6.72c.89-1.87,2.18-3.3,3.87-4.31,1.69-1.01,3.73-1.51,6.12-1.51s4.4.49,6.1,1.47c1.7.98,3.01,2.41,3.92,4.27.92,1.87,1.38,4.12,1.38,6.76s-.45,4.86-1.34,6.74c-.9,1.88-2.19,3.32-3.89,4.32-1.7,1.01-3.75,1.51-6.17,1.51ZM589.64,159.17c2.26,0,4.02-.74,5.28-2.23,1.26-1.49,1.9-3.72,1.9-6.69,0-2.82-.6-5.01-1.81-6.59s-3-2.36-5.36-2.36c-2.21,0-3.96.74-5.23,2.23-1.27,1.49-1.91,3.72-1.91,6.69,0,2.79.6,4.98,1.81,6.57,1.21,1.59,2.98,2.38,5.33,2.38Z"/>
        <path d="M605.13,162.46v-24.44h3.99v20.99h13.21v3.45h-17.2Z"/>
        <path d="M629,162.46h-3.99v-24.44h3.99v24.44Z"/>
        <path d="M634.5,162.46v-24.44h10.12c2.3,0,4.29.5,5.97,1.49,1.68.99,2.97,2.41,3.87,4.24.9,1.83,1.36,4,1.36,6.5s-.44,4.56-1.31,6.39c-.87,1.82-2.15,3.25-3.82,4.27-1.68,1.03-3.7,1.54-6.07,1.54h-10.12ZM644.46,141.54h-5.97v17.4h5.97c2.26,0,4.02-.77,5.3-2.31,1.27-1.54,1.91-3.68,1.91-6.4s-.63-4.83-1.88-6.37c-1.25-1.54-3.03-2.31-5.33-2.31Z"/>
        <path d="M670.34,162.79c-2.35,0-4.36-.5-6.05-1.49-1.69-.99-2.99-2.43-3.9-4.29-.92-1.87-1.38-4.12-1.38-6.76s.45-4.86,1.34-6.72c.89-1.87,2.18-3.3,3.87-4.31,1.69-1.01,3.73-1.51,6.12-1.51s4.4.49,6.1,1.47c1.7.98,3.01,2.41,3.92,4.27.92,1.87,1.38,4.12,1.38,6.76s-.45,4.86-1.34,6.74c-.9,1.88-2.19,3.32-3.89,4.32-1.7,1.01-3.75,1.51-6.17,1.51ZM670.34,159.17c2.26,0,4.02-.74,5.28-2.23,1.26-1.49,1.9-3.72,1.9-6.69,0-2.82-.6-5.01-1.81-6.59s-3-2.36-5.36-2.36c-2.21,0-3.96.74-5.23,2.23-1.27,1.49-1.91,3.72-1.91,6.69,0,2.79.6,4.98,1.81,6.57,1.21,1.59,2.98,2.38,5.33,2.38Z"/>
        <path d="M685.83,162.46v-24.44h11.9c2.48,0,4.41.6,5.78,1.79,1.37,1.2,2.06,2.79,2.06,4.78,0,1.43-.36,2.67-1.09,3.7-.73,1.04-1.74,1.76-3.03,2.16,1.1.22,1.9.54,2.41.96.51.41.86.92,1.02,1.51.17.59.25,1.29.25,2.1v5.77c0,.27.03.53.1.79.07.26.22.43.47.52v.37h-4.09c-.16-.22-.27-.49-.35-.8s-.12-.76-.12-1.34v-4.69c0-1.14-.18-1.99-.55-2.55-.37-.56-1.15-.84-2.33-.84h-8.45v10.23h-3.99ZM689.82,148.88h7.34c1.36,0,2.41-.32,3.13-.97.73-.65,1.09-1.58,1.09-2.78s-.37-2.12-1.11-2.73c-.74-.61-1.77-.92-3.08-.92h-7.38v7.41Z"/>
        <path d="M708.12,162.46l9.76-24.44h4.63l9.76,24.44h-4.22l-2.31-5.93h-11.16l-2.31,5.93h-4.12ZM718.95,145.33l-3.05,7.81h8.52l-3.02-7.81c-.4-1.01-.82-2.15-1.24-3.42-.4,1.25-.8,2.39-1.21,3.42Z"/>
      </g>
    </g>
  </g>
</svg>