<?xml version="1.0" encoding="UTF-8"?>
<svg id="Camada_3" data-name="Camada 3" xmlns="http://www.w3.org/2000/svg" viewBox="0 0 732.49 196.29">
  <defs>
    <style>
      .cls-1 {
        fill: #f2f2f2;
      }
    </style>
  </defs>
  <g id="Camada_1" data-name="Camada 1">
    <g>
      <path class="cls-1" d="M110,130.37v59.13c0,1.01-1.19,1.55-1.95.89L3.19,99.05c-.99-.86-1.69-1.78-2.17-2.67-.75-1.69-1.11-3.55-1.01-5.44.12-2.23.31-4.33.57-6.3.01-.09.02-.18.04-.27,1.34-9.1,4.18-14.64,6.57-17.82,3.12-4.17,6.12-5.29,6.12-5.29l.22-.09c4.3-1.96,8.83-2.7,13.23-2.7,13.99,0,26.76,7.51,26.92,7.61l28.76,16.6c11.36,6.56,19.44,16.54,24.03,29.67,3.46,9.9,3.52,17.97,3.52,18.04Z"/>
      <path class="cls-1" d="M209.58,76.59v65.85c0,2.18-1.17,4.19-3.06,5.26l-.18.1-17.29,9.98c-1.09.63-1.98.13-1.98-1.12v-74.41c0-.84-.56-1.19-1.28-.85-.72.34-1.39,1.3-1.49,2.18l-4.65,45.08-3.58,34.7c-.11,1.17-.97,2.45-1.95,3.02l-19.16,11.06c-.98.57-1.83.27-1.95-.77l-7.97-68-.27-2.27c-.09-.77-.77-.95-1.49-.46-.4.27-.75.69-.98,1.16-.19.39-.3.8-.3,1.17v74.42c0,1.25-.89,2.78-1.98,3.41l-17.09,9.87h0c-1.56.9-3.51-.23-3.51-2.03v-64.99c0-.37-.05-9.21-3.89-20.31-.49-1.43-1.07-2.93-1.73-4.48-.03-.07-.06-.14-.09-.21-4.14-9.61-11.73-21.16-25.55-29.14l-30.01-17.33c-.81-.49-10.99-6.44-23.7-8.2-2.93-.41-3.67-4.31-1.11-5.79L92.82,9.17l.04-.02,5.51-3.17c7.78-3.85,22.95-9.13,40.38-3.54,5.48,1.97,9.48,4.09,10.51,4.66.03.02.06.03.09.05.05.03.11.06.16.09,0,0,.01,0,.02,0l30.03,17.34c10.43,6.02,17.24,14.14,21.68,22.16,8.35,15.09,8.35,29.86,8.35,29.86Z"/>
    </g>
    <g>
      <g>
        <path class="cls-1" d="M392.32,34.47h-30.09c-.69,0-1.31.45-1.52,1.11l-14.07,43.92-13.87-43.91c-.21-.66-.83-1.12-1.52-1.12h-30.2c-.88,0-1.6.72-1.6,1.6v81.24c0,.88.71,1.6,1.6,1.6h18.61c.88,0,1.6-.72,1.6-1.6v-50.39l16.27,50.88c.21.66.83,1.11,1.52,1.11h14.82c.69,0,1.31-.45,1.52-1.11l16.7-51.89-.09,51.39c0,.42.17.83.47,1.13.3.3.71.47,1.13.47h18.72c.88,0,1.6-.72,1.6-1.6V36.07c0-.88-.71-1.6-1.6-1.6Z"/>
        <path class="cls-1" d="M439.8,33.47c-25.45,0-40.04,15.73-40.04,43.16s14.6,43.39,40.04,43.39,40.27-15.81,40.27-43.39-14.68-43.16-40.27-43.16ZM439.8,99.44c-10.77,0-16.23-7.67-16.23-22.81s5.46-22.59,16.23-22.59,16.57,7.6,16.57,22.59-5.57,22.81-16.57,22.81Z"/>
        <path class="cls-1" d="M547.34,34.47h-69.09c-.88,0-1.6.72-1.6,1.6v16.49c0,.88.71,1.6,1.6,1.6h23.14v63.15c0,.88.71,1.6,1.6,1.6h19.61c.88,0,1.6-.72,1.6-1.6v-63.15h23.14c.88,0,1.6-.72,1.6-1.6v-16.49c0-.88-.71-1.6-1.6-1.6Z"/>
        <path class="cls-1" d="M625.77,58.58c0-14.76-10.79-23.93-28.16-23.93h-43.13c-.78,0-1.42.64-1.42,1.42v81.24c0,.78.64,1.42,1.42,1.42h19.5c.78,0,1.42-.64,1.42-1.42v-28.33h21.32c4.65,0,5.48,1.61,5.48,6.16v15.26c0,3.17.38,5.47,1.23,7.47.22.52.74.86,1.31.86h18.38c.78,0,1.42-.64,1.42-1.42v-24.29c0-7.69-1.59-12.89-9.04-15.59,6.49-3.67,10.26-10.46,10.26-18.85ZM602.53,62.15c0,5.33-3.54,8.38-9.72,8.38h-17.41v-16.66h17.63c3.55,0,9.5,1.08,9.5,8.28Z"/>
        <rect class="cls-1" x="632.68" y="34.47" width="22.7" height="84.43" rx="1.6" ry="1.6"/>
        <path class="cls-1" d="M730.89,99.11h-39.36l39.02-46.3c.24-.29.38-.65.38-1.03v-15.71c0-.88-.71-1.6-1.6-1.6h-65.42c-.88,0-1.6.72-1.6,1.6v16.49c0,.88.71,1.6,1.6,1.6h35.5l-38.18,46.2c-.24.29-.37.65-.37,1.02v15.94c0,.88.71,1.6,1.6,1.6h68.42c.88,0,1.6-.72,1.6-1.6v-16.6c0-.88-.71-1.6-1.6-1.6Z"/>
      </g>
      <g>
        <path class="cls-1" d="M500.28,162.48v-24.53h10.16c2.31,0,4.31.5,5.99,1.5,1.68,1,2.98,2.42,3.89,4.26.91,1.84,1.36,4.02,1.36,6.53s-.44,4.58-1.31,6.41c-.87,1.83-2.15,3.26-3.84,4.29-1.68,1.03-3.71,1.55-6.09,1.55h-10.16ZM510.27,141.48h-5.99v17.47h5.99c2.27,0,4.04-.77,5.32-2.32,1.28-1.55,1.92-3.69,1.92-6.43s-.63-4.85-1.88-6.39c-1.26-1.55-3.04-2.32-5.35-2.32Z"/>
        <path class="cls-1" d="M525.82,162.48v-24.53h17.57v3.43h-13.56v6.9h12.15v3.33h-12.15v7.4h14.57v3.47h-18.58Z"/>
        <path class="cls-1" d="M547.87,162.48v-24.53h6.43l6.46,18.68,6.53-18.68h6.29v24.53h-3.94l.17-21.07-7.44,21.07h-3.4l-7.27-21.03v21.03h-3.84Z"/>
        <path class="cls-1" d="M589.09,162.82c-2.36,0-4.38-.5-6.08-1.5-1.69-1-3-2.43-3.92-4.31-.92-1.87-1.38-4.13-1.38-6.78s.45-4.87,1.35-6.75c.9-1.87,2.19-3.32,3.89-4.32,1.69-1.01,3.74-1.51,6.14-1.51s4.42.49,6.13,1.48c1.7.99,3.02,2.42,3.94,4.29.92,1.87,1.38,4.13,1.38,6.78s-.45,4.88-1.35,6.76c-.9,1.88-2.2,3.33-3.9,4.34-1.71,1.01-3.77,1.51-6.19,1.51ZM589.09,159.18c2.27,0,4.03-.75,5.3-2.24,1.27-1.49,1.9-3.73,1.9-6.71,0-2.83-.61-5.03-1.82-6.61s-3.01-2.37-5.39-2.37c-2.22,0-3.97.75-5.25,2.24-1.28,1.49-1.92,3.73-1.92,6.71,0,2.81.61,5,1.82,6.6,1.21,1.59,3,2.39,5.35,2.39Z"/>
        <path class="cls-1" d="M604.64,162.48v-24.53h4v21.07h13.26v3.47h-17.26Z"/>
        <path class="cls-1" d="M628.6,162.48h-4v-24.53h4v24.53Z"/>
        <path class="cls-1" d="M634.12,162.48v-24.53h10.16c2.31,0,4.31.5,5.99,1.5,1.68,1,2.98,2.42,3.89,4.26.91,1.84,1.36,4.02,1.36,6.53s-.44,4.58-1.31,6.41c-.87,1.83-2.15,3.26-3.84,4.29-1.68,1.03-3.71,1.55-6.09,1.55h-10.16ZM644.12,141.48h-5.99v17.47h5.99c2.27,0,4.04-.77,5.32-2.32,1.28-1.55,1.92-3.69,1.92-6.43s-.63-4.85-1.88-6.39c-1.26-1.55-3.04-2.32-5.35-2.32Z"/>
        <path class="cls-1" d="M670.1,162.82c-2.36,0-4.38-.5-6.08-1.5-1.69-1-3-2.43-3.92-4.31-.92-1.87-1.38-4.13-1.38-6.78s.45-4.87,1.35-6.75c.9-1.87,2.19-3.32,3.89-4.32,1.69-1.01,3.74-1.51,6.14-1.51s4.42.49,6.13,1.48c1.7.99,3.02,2.42,3.94,4.29.92,1.87,1.38,4.13,1.38,6.78s-.45,4.88-1.35,6.76c-.9,1.88-2.2,3.33-3.9,4.34-1.71,1.01-3.77,1.51-6.19,1.51ZM670.1,159.18c2.27,0,4.03-.75,5.3-2.24,1.27-1.49,1.9-3.73,1.9-6.71,0-2.83-.61-5.03-1.82-6.61s-3.01-2.37-5.39-2.37c-2.22,0-3.97.75-5.25,2.24-1.28,1.49-1.92,3.73-1.92,6.71,0,2.81.61,5,1.82,6.6,1.21,1.59,3,2.39,5.35,2.39Z"/>
        <path class="cls-1" d="M685.65,162.48v-24.53h11.95c2.49,0,4.43.6,5.8,1.8,1.38,1.2,2.07,2.8,2.07,4.8,0,1.44-.37,2.68-1.09,3.72-.73,1.04-1.74,1.77-3.05,2.17,1.1.22,1.91.54,2.42.96.52.42.86.92,1.03,1.51.17.59.25,1.3.25,2.1v5.79c0,.27.03.53.1.79.07.26.22.43.47.52v.37h-4.11c-.16-.22-.28-.49-.35-.81s-.12-.76-.12-1.35v-4.71c0-1.14-.19-2-.56-2.56-.37-.56-1.15-.84-2.34-.84h-8.48v10.26h-4ZM689.65,148.85h7.37c1.37,0,2.42-.32,3.15-.98.73-.65,1.09-1.58,1.09-2.79s-.37-2.13-1.11-2.74c-.74-.62-1.77-.93-3.1-.93h-7.4v7.44Z"/>
        <path class="cls-1" d="M708.03,162.48l9.79-24.53h4.64l9.79,24.53h-4.24l-2.32-5.96h-11.21l-2.32,5.96h-4.14ZM718.9,145.28l-3.06,7.84h8.55l-3.03-7.84c-.4-1.01-.82-2.15-1.25-3.43-.4,1.26-.81,2.4-1.21,3.43Z"/>
      </g>
    </g>
  </g>
</svg>